<?xml version="1.0" encoding="UTF-8"?>
<svg id="Calque_2" data-name="Calque 2" xmlns="http://www.w3.org/2000/svg" viewBox="0 0 336 186.6">
  <g id="Calque_1-2" data-name="Calque 1">
    <path d="M132.65,185.67c-1.51-2.76,2.21-5.51,4.84-5.25l8.14.82c3.46-2.87,5.78-7.06,5.79-11.76l.09-45.7c-6.2-.03-12.17-1.3-17.33-4.62-6.85-4.4-10.2-11.8-8.54-19.65,2.08-9.83,10.47-17.41,18.62-23.33-10.1-5.98-15.91-13.88-13.88-24.47,2.8-14.57,21.07-20.55,34.85-14.89,9.04,3.72,13.08,12.92,9.47,21.63-2.91,7.04-8.85,12.25-15.33,17.26,12.04,5.83,24.55,13,21.76,27.3-2.27,11.58-11.92,18.43-24.17,20.14l-.14,39.08c-.04,10.53-6.77,19.8-16.8,23.54-2.08.78-5.83,1.42-7.37-.11ZM157.74,74.87c5.62-4.83,10.16-10.77,11.4-18,1.27-7.42-1.9-14.7-8.92-17.99-5.24-2.45-11.4-2.53-16.72-.37-6.61,2.68-9.85,9.29-8.54,15.97,2.1,10.27,13.1,15.53,22.78,20.39ZM168.9,117.43c5.27-3.17,7.77-8.37,7.34-14.08-.38-5.06-2.88-9.1-6.74-12.5-3.85-3.14-8.13-5.6-12.63-7.95l-11.04-5.77c-11.01,7.57-19.02,21.17-11.89,33.05,3.73,6.21,10.34,8.86,17.36,10.21,5.97,1.15,12.21.29,17.59-2.95Z"></path>
    <g>
      <path d="M234.38,57.16c0-2.25-.79-4.89-1.41-6.93-1.75-5.75-6.31-9.41-12.1-10.38-9.84-1.64-17.4,3.09-25.11,9.23l.12,38.01c0,2.38.93,5.7,2.56,6.89,1.2.87,2.36,1.01,1.89,2.7l-15.7-.08c-2.93-.01,3.47-2.37,3.88-6.5l.65-6.55V16.81s-.61-6.07-.61-6.07c-.38-3.79-6.21-5.24-3.91-6.26,3.49-1.54,6.97-3.15,11.09-4.48l.07,46.51c8.14-6.11,17.15-10.94,26.84-10.54,12.42.51,18.42,9.01,18.49,21.1l.18,28.54c.02,2.9.47,6.17,2.3,8.31.74.87,2.63.37,2.57,2.73l-16.61-.03c.51-1.74.92-1.7,2.09-2.53,1.66-1.17,2.68-4.26,2.68-6.62l.03-30.32Z"></path>
      <path d="M276.2,93.09c7.74-.64,10.6-7.32,12.04-6.08.41.35.34,1.26-.11,1.73-3.65,3.83-7.35,7.14-12.44,8.6-4.26,1.23-9.24.72-12.29-2.78-2.18-2.5-3.53-6.4-3.54-9.98l-.1-45.95-7.43-.16c-.28-.77.25-2.13.95-2.89l10.36-11.18c.7-.75,1.64-1.23,2.72-1.19l.03,13.39,17.9.13c-.33,1.3-.96,1.8-1.83,1.8l-16.09.02.04,43.04c0,2.06.54,4.5,1.11,6.25,1.24,3.79,4.53,5.57,8.67,5.22Z"></path>
    </g>
    <path d="M138.38,136.46c0,13.71-11.12,24.83-24.85,24.83s-24.85-11.12-24.85-24.83,11.12-24.83,24.85-24.83,24.85,11.12,24.85,24.83ZM125.24,156.35c11.14-7.19,9.63-25.29-.21-36.22-6.14-6.82-16.05-8.65-23.67-3.33-10.28,7.18-9.33,27.76,2.93,37.87,6.02,4.96,14.31,5.98,20.95,1.69Z"></path>
    <path d="M91.32,85.47l5.43-5.26c.35-.34,1.88.66,1.59,1.03-2.73,3.44-6.04,6.72-9.6,9.44-13.42,10.28-33.12,7.66-42.11-7.09-7.29-11.97-5.65-28.25,3.7-38.68,7.99-8.91,20.53-11.91,31.83-8.83,9.22,2.52,15.03,10.71,15.06,20h-47.79c-1.48,7.26-.76,14.88,2.65,21.64,8.01,15.9,29.98,16.71,39.24,7.74ZM49.81,54.24h40.35c-1.4-6.42-5.64-11.65-10.42-14.27-6.27-3.44-13.32-3.35-19.17-.37s-9.18,8.46-10.76,14.63Z"></path>
    <path d="M109.34,95.66c-.74-2.37,2.36-1.86,2.93-4.71s.83-5.42.83-8.34l-.09-35.34c0-2.79-1.38-4.78-2.92-6.09l-.87-.74c-1.1-.93,5.31-4.1,9.29-5.72l.22,52.06c0,2.21.78,5.27,2.1,6.29,1.05.81,1.78.93,1.63,2.59h-13.11Z"></path>
    <path d="M210.6,148.46c.48-.45,1.4-1.12,1.46-.78l.29,1.53c-3.52,3.95-6.93,7.05-11.55,9.57-10.52,5.04-23.61,1.9-29.64-8.47-5.65-9.72-4.31-22.51,3.32-30.81,6.7-7.28,17.27-9.56,26.44-6.4,6.67,2.29,10.69,8.51,10.75,15.52l-38.15.03c-1.3,7.31-.3,15.31,4.75,21.07,8.63,9.85,24.27,9.05,32.33-1.26ZM205.99,127.13c-1.34-6.08-5.63-10.7-10.63-12.43-9.39-3.25-18.94,1.74-21.48,12.42h32.11Z"></path>
    <g>
      <path d="M224.93,129.25c-1.37,7.39.03,15.24,5,20.71,8.85,9.75,24.36,8.58,32.26-1.68.25-.29,1.25-.95,1.31-.61l.28,1.54c-3.43,3.84-6.76,6.88-11.21,9.39-10.13,5.05-22.68,2.49-29.23-7.1-4.9-7.17-5.54-16.53-1.76-24.77,3.15-6.88,9.89-12.68,18.19-14.38,6.26-1.28,18.46-.7,20.97,4.17-.45,4-5.27,5.46-8.49,3.68l-11.7-6.47c-7.85,1.09-14.1,7.28-15.62,15.53Z"></path>
      <g>
        <path d="M327.58,159.42c-7.6,3.33-18.56,1.62-25.96-2.35l-.67-10.95c.1-.08,1.12-.41,1.21-.22l.54,1.22c4.04,9.01,13.6,14.19,23.17,11.34,3.66-1.09,5.78-4.5,6.04-7.78.29-3.7-1.58-7.25-5.22-8.65l-10.79-4.12c-3.26-1.25-6.81-2.24-9.6-4.4-5.92-4.57-5.39-13.64.39-18.12,7.15-5.54,18.53-4,26.95-.9l.2,9.16-1.22.06c-3.16-8.15-11.63-11.96-20-9.88-2.94.78-5.38,2.89-6.08,5.28-1.76,6.02,2.5,10.2,8.78,12.39l12.27,4.27c2.79.97,5.74,3.16,7.07,5.81,3.44,6.84-.09,14.76-7.09,17.83Z"></path>
        <path d="M295.68,153.08l.9-.91c.16-.16.88.35.87.57-.15,2.91-12.24,12.61-19.39,6.43-1.99-1.72-3.42-5.07-3.43-7.96l-.16-37.39h-6.08c.11-.88.52-2.04,1.09-2.61,3.5-3.53,5.93-6.64,10.1-10.3l.22,11.39,13.76.02c.34.11.08,1.49-.42,1.49l-13.37.06.07,35.07c0,3.03,1.15,6.5,3.81,7.68,4.39,1.95,8.81-.3,12.02-3.55Z"></path>
      </g>
    </g>
    <g>
      <path d="M9.46,178.2c0,2.04.9,4.23,1.8,5.55,1.33.32,2.01.96,1.92,2.05l-13.18-.05c.62-1.3,1.15-1.5,2.07-2.23,1.17-.93,1.86-3.76,1.86-5.66v-55.81c0-5.11-5.57-6.07-3.34-7.01l8.52-3.59.45,8.44c5.15-4.19,10.42-7.04,16.61-7.95,8.69-1.28,16.59,2.91,20.24,10.91,6.16,13.52,1.38,31.25-12.22,36.52-8.28,3.21-17,1.78-24.76-3.3l.03,22.13ZM28.93,158.95c6.98-.47,12.1-4.91,13.96-11.36,2.28-7.94,1.4-16.59-2.22-24s-11.19-10.34-18.88-8.5c-4.67,1.12-8.59,3.58-12.37,6.7v22.19c-.01,8.69,10.17,15.6,19.51,14.97Z"></path>
      <path d="M65.93,128.29c-.45,8.67-.22,16.68-.1,25.06.02,1.66,1.01,4.3,2.2,4.93l1.34.71c.24.13.05.83-.08,1.26l-13.27-.26c2.74-2.42,4.14-3.67,4.15-6.73l.05-31.19c0-2.95-1.17-4.43-4.3-6.34l9.57-4.32.3,11.67c1.77-3.38,3.85-6.6,7.18-8.8,4.48-2.95,10.66-3.5,15.51-1.2.53,1.49-.17,3.42-1.16,4.36s-3.04,1.83-4.49,1.51l-10.52-2.33c-2.85,3.01-6.14,7-6.38,11.65Z"></path>
    </g>
  </g>
</svg>